<svg width="32" height="31" viewBox="0 0 32 31" fill="none" xmlns="http://www.w3.org/2000/svg">
<path d="M15.1035 1.14988C15.4703 0.406714 16.53 0.406714 16.8969 1.14988L20.9177 9.29567C21.0633 9.59052 21.3444 9.79498 21.6698 9.84254L30.663 11.157C31.483 11.2769 31.8097 12.2847 31.2161 12.8629L24.7103 19.1996C24.4744 19.4293 24.3667 19.7605 24.4224 20.085L25.9576 29.0359C26.0977 29.8528 25.2402 30.4758 24.5065 30.09L16.4656 25.8614C16.1742 25.7081 15.8261 25.7081 15.5347 25.8614L7.4938 30.09C6.76017 30.4758 5.90262 29.8528 6.04274 29.0359L7.57792 20.085C7.63358 19.7605 7.52591 19.4293 7.29004 19.1996L0.784176 12.8629C0.190583 12.2847 0.517365 11.2769 1.33728 11.157L10.3305 9.84254C10.6559 9.79498 10.9371 9.59052 11.0826 9.29568L15.1035 1.14988Z" fill="#F0F8FF"/>
</svg>
